<svg id="Group_7" data-name="Group 7" xmlns="http://www.w3.org/2000/svg" xmlns:xlink="http://www.w3.org/1999/xlink" width="318.023" height="74.975" viewBox="0 0 318.023 74.975">
  <defs>
    <clipPath id="clip-path">
      <rect id="Rectangle_1" data-name="Rectangle 1" width="318.023" height="74.975" fill="none"/>
    </clipPath>
  </defs>
  <g id="Group_1" data-name="Group 1" clip-path="url(#clip-path)">
    <path id="Path_1" data-name="Path 1" d="M2.116,11.526A11.736,11.736,0,0,1,8.534,5.46q4.3-1.692,11.782-1.693h30.15V22.249H11.993v1.976H20.6l0,53.05H0l0-53.05q0-8.324,2.116-12.7" transform="translate(0 -2.3)" fill="#fff"/>
    <path id="Path_2" data-name="Path 2" d="M347.291,3.767h21.731L390.583,61.2,412.138,3.768h21.438L406.46,76.1H374.416Z" transform="translate(-212.039 -2.3)" fill="#fff"/>
    <path id="Path_3" data-name="Path 3" d="M221.508,48.512a43.117,43.117,0,0,1-4.971,10.561c-1.977,3.233-5.485,8.968-16.5,13.811a44.289,44.289,0,0,1-14.176,2.1A42.558,42.558,0,0,1,168.65,71.8,33.434,33.434,0,0,1,149.772,51.33a43.689,43.689,0,0,1,0-27.63A33.408,33.408,0,0,1,168.646,3.233,42.538,42.538,0,0,1,185.86.05a38.938,38.938,0,0,1,16.346,3.183,33.224,33.224,0,0,1,11.5,8.463,35.3,35.3,0,0,1,6.8,12.006,43.452,43.452,0,0,1,2.243,13.815,26.045,26.045,0,0,1-.145,2.676q-.146,1.376-.289,2.676H165.178c3.171,13.653,14.4,16.556,20.4,16.156,4.129-.227,12.748-1.6,17.706-10.514ZM203.943,28.4a20.1,20.1,0,0,0-6.582-8.9,18.18,18.18,0,0,0-11.5-3.543q-7.668,0-12.512,3.616a20.963,20.963,0,0,0-7.016,8.824Z" transform="translate(-90.074 -0.031)" fill="#fff"/>
    <path id="Path_4" data-name="Path 4" d="M790.007,150.169a8.48,8.48,0,1,1-8.481-8.481,8.481,8.481,0,0,1,8.481,8.481" transform="translate(-471.983 -86.508)" fill="#00d9ff"/>
    <path id="Path_5" data-name="Path 5" d="M608.923,74.931a41.065,41.065,0,0,1-16.888-3.181,33.392,33.392,0,0,1-11.708-8.464,34.166,34.166,0,0,1-6.813-12.006,44.486,44.486,0,0,1,0-27.63,34.2,34.2,0,0,1,6.812-12.006,33.425,33.425,0,0,1,11.707-8.461,46.4,46.4,0,0,1,33.777,0,33.477,33.477,0,0,1,11.709,8.462,34.31,34.31,0,0,1,6.813,12.008,44.24,44.24,0,0,1,2.2,13.815,36.6,36.6,0,0,1-2.2,13.815c-4.693,12.579-15.985,24.462-35.408,23.65M626.893,48.1c1.756-3.055,2.227-6.878,2.227-10.639a23.939,23.939,0,0,0-2.272-10.415,20.037,20.037,0,0,0-6.883-7.956,22.094,22.094,0,0,0-22.849,0,20.59,20.59,0,0,0-6.955,7.956,22.645,22.645,0,0,0-2.269,10.415,24.659,24.659,0,0,0,2.342,10.415,20,20,0,0,0,6.883,7.956,20.8,20.8,0,0,0,11.424,3.182c4.26-.222,13.369-1.488,18.352-10.914" transform="translate(-348.816)" fill="#fff"/>
  </g>
</svg>
